<svg xmlns="http://www.w3.org/2000/svg" width="30" height="30" viewBox="0 0 30 30">
  <g id="global" transform="translate(0 -0.316)">
    <path id="Path_2043" data-name="Path 2043" d="M231.816,349.872c1.977-.281,3.711-2.345,4.8-5.393a23.471,23.471,0,0,0-4.8-.565Zm0,0" transform="translate(-215.791 -319.556)" fill="#faaa1e"/>
    <path id="Path_2044" data-name="Path 2044" d="M279.9,362.3c.117-.034.233-.068.349-.105.1-.031.194-.065.29-.1.114-.039.227-.08.34-.122.1-.037.191-.075.287-.114l.329-.139c.095-.042.189-.086.284-.13s.213-.1.318-.155.185-.1.277-.145.206-.112.309-.17.182-.1.272-.159l.3-.185c.089-.056.177-.114.264-.173s.194-.134.289-.2.172-.123.255-.185.187-.145.28-.219.164-.131.246-.2.181-.156.27-.236.158-.139.234-.21.174-.168.26-.252.15-.146.223-.221l.04-.044a15.533,15.533,0,0,0-3.167-1.219,11.468,11.468,0,0,1-2.954,4.8l.112-.027c.1-.028.2-.058.292-.087Zm0,0" transform="translate(-259.209 -332.463)" fill="#faaa1e"/>
    <path id="Path_2045" data-name="Path 2045" d="M342.033,231.684h-5.541a23.969,23.969,0,0,1-.933,6.394,16.072,16.072,0,0,1,3.507,1.4,12.912,12.912,0,0,0,2.967-7.79Zm0,0" transform="translate(-312.033 -214.892)" fill="#faaa1e"/>
    <path id="Path_2046" data-name="Path 2046" d="M231.816,115.108h6a23.119,23.119,0,0,0-.91-6.166,24.344,24.344,0,0,1-5.092.607Zm0,0" transform="translate(-215.632 -101.011)" fill="#faaa1e"/>
    <path id="Path_2047" data-name="Path 2047" d="M231.816.316V6.275a23.488,23.488,0,0,0,4.8-.565c-1.091-3.048-2.824-5.112-4.8-5.393Zm0,0" transform="translate(-215.791)" fill="#faaa1e"/>
    <path id="Path_2048" data-name="Path 2048" d="M231.816,237.243a24.358,24.358,0,0,1,5.092.607,23.121,23.121,0,0,0,.91-6.167h-6Zm0,0" transform="translate(-215.631 -215.148)" fill="#faaa1e"/>
    <path id="Path_2049" data-name="Path 2049" d="M339.066,80.844a16.073,16.073,0,0,1-3.507,1.4,23.968,23.968,0,0,1,.933,6.394h5.541a12.916,12.916,0,0,0-2.967-7.79Zm0,0" transform="translate(-312.033 -74.793)" fill="#faaa1e"/>
    <path id="Path_2050" data-name="Path 2050" d="M285.581,10.373l-.04-.043c-.073-.075-.149-.148-.223-.221s-.171-.17-.26-.252-.156-.139-.234-.21-.179-.16-.271-.236-.162-.132-.243-.2-.187-.149-.283-.221-.168-.124-.253-.185-.194-.139-.292-.2-.174-.115-.262-.171-.2-.127-.3-.188-.179-.106-.269-.158-.207-.116-.311-.172-.185-.1-.277-.143-.213-.105-.323-.156q-.139-.066-.282-.129c-.109-.049-.22-.092-.33-.139-.1-.039-.19-.077-.286-.114-.112-.043-.226-.083-.34-.122-.1-.034-.192-.067-.29-.1-.116-.037-.231-.072-.35-.106-.1-.028-.193-.057-.29-.083l-.113-.028a11.469,11.469,0,0,1,2.954,4.8,15.51,15.51,0,0,0,3.17-1.22Zm0,0" transform="translate(-259.173 -6.106)" fill="#faaa1e"/>
    <path id="Path_2051" data-name="Path 2051" d="M0,88.633H5.541a23.977,23.977,0,0,1,.933-6.394,16.053,16.053,0,0,1-3.507-1.4A12.913,12.913,0,0,0,0,88.633Zm0,0" transform="translate(0 -74.793)" fill="#faaa1e"/>
    <path id="Path_2052" data-name="Path 2052" d="M137.5,349.872v-5.958a23.49,23.49,0,0,0-4.8.565C133.786,347.527,135.519,349.591,137.5,349.872Zm0,0" transform="translate(-123.522 -319.556)" fill="#faaa1e"/>
    <path id="Path_2053" data-name="Path 2053" d="M117.923,231.684h-6a23.113,23.113,0,0,0,.91,6.167,24.327,24.327,0,0,1,5.092-.607Zm0,0" transform="translate(-104.107 -215.149)" fill="#faaa1e"/>
    <path id="Path_2054" data-name="Path 2054" d="M137.5.316c-1.977.281-3.711,2.345-4.8,5.393a23.457,23.457,0,0,0,4.8.565Zm0,0" transform="translate(-123.522)" fill="#faaa1e"/>
    <path id="Path_2055" data-name="Path 2055" d="M117.923,109.549a24.344,24.344,0,0,1-5.092-.607,23.111,23.111,0,0,0-.91,6.166h6Zm0,0" transform="translate(-104.108 -101.01)" fill="#faaa1e"/>
    <path id="Path_2056" data-name="Path 2056" d="M68.31,6.789l-.112.027c-.1.026-.195.055-.292.083-.116.034-.231.068-.348.1-.1.032-.195.066-.291.1-.113.04-.226.08-.338.122-.1.037-.192.075-.287.115l-.329.139c-.1.042-.189.086-.284.13s-.213.1-.318.155-.185.1-.277.145-.206.112-.308.171-.183.1-.273.159-.2.123-.3.185-.177.114-.264.173S64.1,8.73,64,8.8s-.172.123-.256.185-.185.145-.28.219-.165.131-.245.2-.18.155-.269.234-.159.139-.236.212-.173.167-.259.251-.15.146-.223.222l-.04.044a15.516,15.516,0,0,0,3.167,1.219A11.464,11.464,0,0,1,68.31,6.789Zm0,0" transform="translate(-58.598 -6.099)" fill="#faaa1e"/>
    <path id="Path_2057" data-name="Path 2057" d="M62.49,359.045c.086.085.172.17.26.253s.156.139.234.21.179.16.271.236.161.132.243.2.185.149.283.221.168.123.253.185.194.139.292.205.174.115.262.171.2.127.3.188.179.106.269.158.207.116.311.172.185.1.277.143.213.105.323.156q.139.065.282.128c.109.049.22.092.33.139.1.039.19.077.286.114.112.043.226.083.34.123.1.034.192.068.29.1.116.037.231.072.35.106.1.028.193.057.29.083l.113.028a11.471,11.471,0,0,1-2.954-4.8,15.517,15.517,0,0,0-3.167,1.219l.04.043c.069.075.144.148.219.221Zm0,0" transform="translate(-58.636 -332.416)" fill="#faaa1e"/>
    <path id="Path_2058" data-name="Path 2058" d="M2.967,239.473a16.076,16.076,0,0,1,3.507-1.4,23.976,23.976,0,0,1-.933-6.394H0a12.915,12.915,0,0,0,2.967,7.79Zm0,0" transform="translate(0 -214.891)" fill="#faaa1e"/>
  </g>
</svg>
