<svg xmlns="http://www.w3.org/2000/svg" width="30.69" height="30.699" viewBox="0 0 30.69 30.699">
  <g id="Group_10029" data-name="Group 10029" transform="translate(-821 -733)">
    <g id="Group_10029-2" data-name="Group 10029" transform="translate(821 733)">
      <path id="Path_2086" data-name="Path 2086" d="M800.434-244.137a8.583,8.583,0,0,1-.86,1.268c-2.558,2.591-5.138,5.16-7.713,7.734q-4.445,4.444-8.893,8.886c-1.009,1.007-1.639,1-2.669-.021q-1.364-1.356-2.723-2.718c-1.047-1.049-1.05-1.683-.012-2.721q6.68-6.679,13.362-13.356,1.652-1.651,3.3-3.3a1.474,1.474,0,0,1,2.421.012c1.008,1,2.026,1.991,3.005,3.018A8.018,8.018,0,0,1,800.434-244.137Zm-5.1-2.829-3.428,3.464,2.88,2.842,3.421-3.367Z" transform="translate(-776.788 256.196)" fill="#1d9eff"/>
      <path id="Path_2087" data-name="Path 2087" d="M955.726-173.179c-.553.995-1.091,2-1.669,2.98a.8.8,0,0,0,.008.931,25.3,25.3,0,0,1,1.571,3.047,17.038,17.038,0,0,1-2.037-1.149,2.092,2.092,0,0,0-2.82.007,7.473,7.473,0,0,1-2.1,1.008c.474-.848.911-1.72,1.436-2.536a1.341,1.341,0,0,0,.024-1.669,17.084,17.084,0,0,1-1.409-2.731,17.1,17.1,0,0,1,2.02,1.142,2.065,2.065,0,0,0,2.857.016,14.49,14.49,0,0,1,2.016-1.148Z" transform="translate(-925.042 190.902)" fill="#1d9eff"/>
      <path id="Path_2088" data-name="Path 2088" d="M955.618-294.227c-.974-.538-1.958-1.06-2.918-1.622a.873.873,0,0,0-1,0,21.73,21.73,0,0,1-3.011,1.5c.529-.947,1.033-1.911,1.6-2.835a.941.941,0,0,0-.011-1.122,25.42,25.42,0,0,1-1.536-2.978,14.751,14.751,0,0,1,1.955,1.109,2.151,2.151,0,0,0,2.979.015,7.958,7.958,0,0,1,2.066-1.041c-.477.862-.9,1.759-1.446,2.576a1.4,1.4,0,0,0,.006,1.779c.533.795.954,1.665,1.424,2.5Z" transform="translate(-925.047 301.293)" fill="#1d9eff"/>
      <path id="Path_2089" data-name="Path 2089" d="M827.723-301.26c-.55.99-1.082,1.991-1.662,2.964a.849.849,0,0,0,.013.995,22.989,22.989,0,0,1,1.54,3c-.97-.535-1.949-1.057-2.907-1.614a.874.874,0,0,0-1-.025,23.358,23.358,0,0,1-3.031,1.522c.526-.943,1.032-1.9,1.589-2.823a.946.946,0,0,0,.013-1.123,23.24,23.24,0,0,1-1.541-3.008c.985.556,1.98,1.1,2.952,1.677a.838.838,0,0,0,.991,0c.968-.583,1.967-1.115,2.954-1.666Z" transform="translate(-814.636 301.371)" fill="#1d9eff"/>
    </g>
  </g>
</svg>
