<svg xmlns="http://www.w3.org/2000/svg" width="21.186" height="30" viewBox="0 0 21.186 30">
  <g id="server" transform="translate(-54.503)">
    <g id="Group_9988" data-name="Group 9988" transform="translate(54.508)">
      <g id="Group_9987" data-name="Group 9987" transform="translate(0)">
        <path id="Path_2039" data-name="Path 2039" d="M72.89.991A27.125,27.125,0,0,0,65.166,0a27.114,27.114,0,0,0-7.724.991c-1.793.558-2.864,1.287-2.864,1.95s1.071,1.391,2.864,1.949h0a27.109,27.109,0,0,0,7.724.991A27.11,27.11,0,0,0,72.89,4.89c1.793-.558,2.864-1.287,2.864-1.95S74.683,1.549,72.89.991Z" transform="translate(-54.578 0)" fill="#fe4b5f"/>
      </g>
    </g>
    <g id="Group_9990" data-name="Group 9990" transform="translate(54.503 22.306)">
      <g id="Group_9989" data-name="Group 9989">
        <path id="Path_2040" data-name="Path 2040" d="M65.1,262.528c-4.149,0-8.49-.737-10.593-2.134v4.753c0,.663,1.074,1.392,2.867,1.95a27.14,27.14,0,0,0,7.728.991,32.172,32.172,0,0,0,5.137-.4c3.21-.53,5.455-1.576,5.455-2.545v-4.753C73.586,261.791,69.245,262.528,65.1,262.528Zm1.86,3.229h-3.72a.563.563,0,1,1,0-1.113h3.72a.563.563,0,1,1,0,1.113Z" transform="translate(-54.503 -260.394)" fill="#fe4b5f"/>
      </g>
    </g>
    <g id="Group_9992" data-name="Group 9992" transform="translate(54.503 14.138)">
      <g id="Group_9991" data-name="Group 9991">
        <path id="Path_2041" data-name="Path 2041" d="M65.1,167.264c-4.149,0-8.49-.737-10.593-2.134v4.707c0,.663,1.074,1.392,2.867,1.95a27.138,27.138,0,0,0,7.728.991,27.12,27.12,0,0,0,7.725-.991c1.793-.558,2.866-1.287,2.866-1.95V165.13C73.586,166.527,69.245,167.264,65.1,167.264Zm1.86,3.108h-3.72a.563.563,0,1,1,0-1.113h3.72a.563.563,0,1,1,0,1.113Z" transform="translate(-54.503 -165.13)" fill="#fe4b5f"/>
      </g>
    </g>
    <g id="Group_9994" data-name="Group 9994" transform="translate(54.503 5.982)">
      <g id="Group_9993" data-name="Group 9993">
        <path id="Path_2042" data-name="Path 2042" d="M65.1,72c-4.149,0-8.49-.738-10.593-2.135v4.707c0,.663,1.074,1.392,2.867,1.95a27.138,27.138,0,0,0,7.728.991,27.12,27.12,0,0,0,7.725-.991c1.793-.558,2.866-1.287,2.866-1.95V69.868C73.586,71.265,69.245,72,65.1,72Zm1.86,3.2h-3.72a.563.563,0,1,1,0-1.113h3.72a.563.563,0,1,1,0,1.113Z" transform="translate(-54.503 -69.868)" fill="#fe4b5f"/>
      </g>
    </g>
  </g>
</svg>
