<svg xmlns="http://www.w3.org/2000/svg" width="19.857" height="23.534" viewBox="0 0 19.857 23.534">
  <g id="verified" transform="translate(-40 0)">
    <path id="Path_1926" data-name="Path 1926" d="M59.29,3.811,50.281.07a.919.919,0,0,0-.705,0l-9.009,3.74A.919.919,0,0,0,40,4.66V9.207a15.4,15.4,0,0,0,9.581,14.259.919.919,0,0,0,.695,0A15.4,15.4,0,0,0,59.857,9.207V4.66A.919.919,0,0,0,59.29,3.811Zm-1.272,5.4a13.559,13.559,0,0,1-8.09,12.409,13.56,13.56,0,0,1-8.09-12.409V5.274l8.09-3.359,8.09,3.359Zm-9.106,3.1,3.951-3.951a.919.919,0,1,1,1.3,1.3l-4.6,4.6a.919.919,0,0,1-1.3,0l-2.569-2.569a.919.919,0,1,1,1.3-1.3Z" transform="translate(0 0)" fill="#b8c5d3"/>
  </g>
</svg>
