<svg xmlns="http://www.w3.org/2000/svg" width="28.308" height="32.05" viewBox="0 0 28.308 32.05">
  <g id="shield" transform="translate(-29.896 0)">
    <g id="Group_9860" data-name="Group 9860">
      <path id="Path_1932" data-name="Path 1932" d="M121.472,103.063a28.475,28.475,0,0,0,1.076,5.772c1.4,4.63,3.868,7.921,7.345,9.792,3.477-1.871,5.947-5.163,7.345-9.792a28.479,28.479,0,0,0,1.076-5.772l-8.421-4.211Z" transform="translate(-85.843 -92.664)" fill="#ff4c60"/>
      <path id="Path_1933" data-name="Path 1933" d="M58.188,7.49A.939.939,0,0,0,57.67,6.7L44.47.1a.939.939,0,0,0-.84,0l-13.2,6.6a.939.939,0,0,0-.518.791,33.268,33.268,0,0,0,1.332,10.081,24.594,24.594,0,0,0,4.032,8.16,19.085,19.085,0,0,0,8.44,6.258.94.94,0,0,0,.668,0,19.084,19.084,0,0,0,8.44-6.258,24.6,24.6,0,0,0,4.032-8.16A33.268,33.268,0,0,0,58.188,7.49ZM44.466,27.861a.939.939,0,0,1-.832,0c-4.181-2.067-7.117-5.818-8.727-11.147a30.655,30.655,0,0,1-1.2-6.815.939.939,0,0,1,.517-.9l9.4-4.7a.939.939,0,0,1,.84,0l9.4,4.7a.939.939,0,0,1,.517.9,30.655,30.655,0,0,1-1.2,6.815C51.583,22.043,48.647,25.793,44.466,27.861Z" fill="#ff4c60"/>
    </g>
  </g>
</svg>
