<svg xmlns="http://www.w3.org/2000/svg" width="30.743" height="29.453" viewBox="0 0 30.743 29.453">
  <path id="star_1_" data-name="star (1)" d="M30.075,14.395a2.2,2.2,0,0,0-1.223-3.761L21.408,9.553a.972.972,0,0,1-.733-.532L17.348,2.276a2.2,2.2,0,0,0-3.954,0L10.066,9.021a.973.973,0,0,1-.733.532L1.889,10.635A2.2,2.2,0,0,0,.666,14.4l5.386,5.25a.975.975,0,0,1,.281.862L5.062,27.92a2.158,2.158,0,0,0,.481,1.788,2.228,2.228,0,0,0,2.718.536l6.657-3.5a1,1,0,0,1,.906,0l6.658,3.5a2.182,2.182,0,0,0,1.026.257,2.211,2.211,0,0,0,1.692-.793,2.157,2.157,0,0,0,.481-1.788l-1.271-7.413a.974.974,0,0,1,.281-.862Z" transform="translate(0.001 -1.047)" fill="#686cee"/>
</svg>
