<svg id="web-hosting" xmlns="http://www.w3.org/2000/svg" width="35" height="35" viewBox="0 0 35 35">
  <path id="Path_2081" data-name="Path 2081" d="M31.89,290.26a3.115,3.115,0,0,0-2.947,2.119H20.482a3.124,3.124,0,0,0-1.956-1.956v-2.214H29.8a1.025,1.025,0,0,0,1.025-1.025v-6.517H4.17v6.517A1.025,1.025,0,0,0,5.2,288.209H16.475v2.237a3.125,3.125,0,0,0-1.888,1.933H6.058a3.109,3.109,0,1,0-.023,2.051H14.61a3.113,3.113,0,0,0,5.849,0h8.507a3.11,3.11,0,1,0,2.924-4.17ZM9.3,285.464a1.025,1.025,0,1,1,1.025-1.025A1.025,1.025,0,0,1,9.3,285.464Zm3.076-1.025a1.025,1.025,0,0,1,1.025-1.025H25.7a1.025,1.025,0,1,1,0,2.051H13.4A1.025,1.025,0,0,1,12.373,284.438Z" transform="translate(0 -261.481)" fill="#f6c"/>
  <path id="Path_2082" data-name="Path 2082" d="M87.66,1.025A1.025,1.025,0,0,0,86.635,0H62.025A1.025,1.025,0,0,0,61,1.025V7.542H87.66ZM66.127,4.8a1.025,1.025,0,1,1,1.025-1.025A1.025,1.025,0,0,1,66.127,4.8Zm16.406,0h-12.3a1.025,1.025,0,0,1,0-2.051h12.3a1.025,1.025,0,0,1,0,2.051Z" transform="translate(-56.83)" fill="#f6c"/>
  <path id="Path_2083" data-name="Path 2083" d="M87.66,140.333H61v7.542H87.66Zm-21.533,4.831a1.025,1.025,0,1,1,1.025-1.025A1.025,1.025,0,0,1,66.127,145.164Zm16.406,0h-12.3a1.025,1.025,0,0,1,0-2.051h12.3a1.025,1.025,0,0,1,0,2.051Z" transform="translate(-56.83 -130.74)" fill="#f6c"/>
</svg>
