<svg xmlns="http://www.w3.org/2000/svg" width="37.042" height="24.941" viewBox="0 0 37.042 24.941">
  <g id="dollar" transform="translate(0 -75.473)">
    <g id="Group_9997" data-name="Group 9997" transform="translate(15.404 94.209)">
      <g id="Group_9996" data-name="Group 9996">
        <path id="Path_2072" data-name="Path 2072" d="M195.81,309.422v-.144c-.738-.008-1.443-.048-2.124-.1a9.681,9.681,0,0,1-1.539,2.638,25.051,25.051,0,0,0,3.712.329Z" transform="translate(-192.146 -309.173)" fill="#3fff11"/>
      </g>
    </g>
    <g id="Group_9999" data-name="Group 9999" transform="translate(0 82.776)">
      <g id="Group_9998" data-name="Group 9998" transform="translate(0 0)">
        <path id="Path_2073" data-name="Path 2073" d="M15.821,172.946a8.049,8.049,0,0,0-5.468-6.021,8.165,8.165,0,0,0-2.365-.353,7.988,7.988,0,1,0,5.379,13.893,7.943,7.943,0,0,0,2.614-5.908A8.384,8.384,0,0,0,15.821,172.946Zm-7.833.537a3.026,3.026,0,0,1,.818,5.941v.705a.8.8,0,1,1-1.6,0v-.7a3.045,3.045,0,0,1-2.245-2.926.8.8,0,1,1,1.6,0,1.423,1.423,0,1,0,1.419-1.427,3.025,3.025,0,0,1-.77-5.949v-.345a.8.8,0,0,1,1.6,0v.361a3.031,3.031,0,0,1,2.2,2.918.8.8,0,1,1-1.6,0,1.427,1.427,0,1,0-1.427,1.419Z" transform="translate(0 -166.573)" fill="#3fff11"/>
      </g>
    </g>
    <g id="Group_10001" data-name="Group 10001" transform="translate(17.4 89.807)">
      <g id="Group_10000" data-name="Group 10000" transform="translate(0 0)">
        <path id="Path_2074" data-name="Path 2074" d="M218.689,257.167l-.048-2.838c-.5-.008-.986-.024-1.451-.056.024.321.04.633.04.946a9.854,9.854,0,0,1-.184,1.876C217.575,257.143,218.128,257.167,218.689,257.167Z" transform="translate(-217.046 -254.273)" fill="#3fff11"/>
      </g>
    </g>
    <g id="Group_10003" data-name="Group 10003" transform="translate(11.355 79.433)">
      <g id="Group_10002" data-name="Group 10002" transform="translate(0 0)">
        <path id="Path_2075" data-name="Path 2075" d="M158.113,124.873a9.614,9.614,0,0,1-1.74.7,26.486,26.486,0,0,1-13,.064,8.882,8.882,0,0,1-1.732-.665l.056,2.261a9.249,9.249,0,0,1,2.509,1.419c.024.008.04.008.064.016a22.936,22.936,0,0,0,5.46.6,22.692,22.692,0,0,0,6.173-.778c1.74-.529,2.124-1.082,2.124-1.186a.46.46,0,0,1,.08-.329Z" transform="translate(-141.646 -124.873)" fill="#3fff11"/>
      </g>
    </g>
    <g id="Group_10005" data-name="Group 10005" transform="translate(11.275 75.473)">
      <g id="Group_10004" data-name="Group 10004" transform="translate(0 0)">
        <path id="Path_2076" data-name="Path 2076" d="M154.98,76.251a22.383,22.383,0,0,0-6.173-.778,21.655,21.655,0,0,0-6.093.778c-1.692.513-2.06,1.018-2.068,1.178,0,0,.008,0,.008.016.04.176.521.722,2.245,1.219a22.012,22.012,0,0,0,5.908.722,22.653,22.653,0,0,0,6.165-.77c1.74-.521,2.132-1.074,2.132-1.187S156.72,76.78,154.98,76.251Z" transform="translate(-140.646 -75.473)" fill="#3fff11"/>
      </g>
    </g>
    <g id="Group_10007" data-name="Group 10007" transform="translate(20.703 96.028)">
      <g id="Group_10006" data-name="Group 10006">
        <path id="Path_2077" data-name="Path 2077" d="M274.568,334.278v-2.405a10.276,10.276,0,0,1-1.684.681,23.708,23.708,0,0,1-6.622.842,24.673,24.673,0,0,1-6.021-.689,10.448,10.448,0,0,1-2-.73l.04,2.325v.016c0,.12.353.657,2.044,1.179a21.816,21.816,0,0,0,6.085.762,21.4,21.4,0,0,0,6.1-.786c1.692-.529,2.06-1.082,2.06-1.195Z" transform="translate(-258.246 -331.873)" fill="#3fff11"/>
      </g>
    </g>
    <g id="Group_10009" data-name="Group 10009" transform="translate(15.797 83.907)">
      <g id="Group_10008" data-name="Group 10008" transform="translate(0 0)">
        <path id="Path_2078" data-name="Path 2078" d="M209.055,180.673a10.124,10.124,0,0,1-1.732.689,23.928,23.928,0,0,1-6.646.842,28.872,28.872,0,0,1-3.632-.232,9.5,9.5,0,0,1,1.435,2.982c.689.048,1.435.08,2.2.08h.08c1.315-1.443,4.85-2.165,8.289-2.261v-2.1Z" transform="translate(-197.046 -180.673)" fill="#3fff11"/>
      </g>
    </g>
    <g id="Group_10011" data-name="Group 10011" transform="translate(20.631 91.595)">
      <g id="Group_10010" data-name="Group 10010" transform="translate(0 0)">
        <path id="Path_2079" data-name="Path 2079" d="M272,277.254a24,24,0,0,1-6.55.818,23.7,23.7,0,0,1-6.357-.778,9.836,9.836,0,0,1-1.748-.673l.032,1.844.008.673c.625.778,3.616,1.78,8.057,1.78a22.181,22.181,0,0,0,6.149-.77c1.732-.529,2.108-1.074,2.108-1.186,0-.088.048-.184.048-.265h.008v-2.124A9.153,9.153,0,0,1,272,277.254Z" transform="translate(-257.346 -276.573)" fill="#3fff11"/>
      </g>
    </g>
    <g id="Group_10013" data-name="Group 10013" transform="translate(20.575 87.627)">
      <g id="Group_10012" data-name="Group 10012" transform="translate(0 0)">
        <path id="Path_2080" data-name="Path 2080" d="M270.98,227.835a22.468,22.468,0,0,0-6.173-.762h-.136a21.818,21.818,0,0,0-5.716.681c-1.659.465-2.229.994-2.3,1.211a.061.061,0,0,0-.008.032l.016.032c.048.168.521.714,2.245,1.219a24.915,24.915,0,0,0,12-.04c1.78-.529,2.181-1.082,2.189-1.2V229C273.089,228.877,272.688,228.348,270.98,227.835Z" transform="translate(-256.646 -227.073)" fill="#3fff11"/>
      </g>
    </g>
  </g>
</svg>
