<svg id="laptop_1_" data-name="laptop (1)" xmlns="http://www.w3.org/2000/svg" width="32.333" height="25" viewBox="0 0 32.333 25">
  <path id="Path_2002" data-name="Path 2002" d="M29.338,32.359V14.79a1.285,1.285,0,0,0-1.2-1.351H4.192a1.284,1.284,0,0,0-1.2,1.351V32.359L0,36.413a1.922,1.922,0,0,0,1.8,2.026H30.537a1.923,1.923,0,0,0,1.8-2.026ZM18.563,37.766H13.773a.341.341,0,0,1,0-.676h4.791a.341.341,0,0,1,0,.676ZM11.23,36.415l.914-1.238h8.043l.915,1.238Zm16.423-6.446a1.12,1.12,0,0,1-1.044,1.18H5.724a1.123,1.123,0,0,1-1.044-1.18V15.832a1.12,1.12,0,0,1,1.044-1.18H26.61a1.122,1.122,0,0,1,1.044,1.18S27.653,29.969,27.653,29.969Z" transform="translate(0 -13.439)" fill="#686cee"/>
</svg>
