<svg xmlns="http://www.w3.org/2000/svg" width="31.271" height="31.232" viewBox="0 0 31.271 31.232">
  <path id="manual" d="M3.531,20.643v3.492a3.6,3.6,0,0,0,3.6,3.6h3.492l2.476,2.476a3.586,3.586,0,0,0,5.082,0l2.476-2.476h3.492a3.6,3.6,0,0,0,3.6-3.6V20.643l2.476-2.476a3.586,3.586,0,0,0,0-5.082L27.74,10.61V7.118a3.6,3.6,0,0,0-3.6-3.6H20.652L18.176,1.046a3.684,3.684,0,0,0-5.082,0L10.619,3.522H7.127a3.6,3.6,0,0,0-3.6,3.6V10.61L1.055,13.086a3.586,3.586,0,0,0,0,5.082Zm8.2-9.251a.977.977,0,0,1,.7-.938,1,1,0,0,1,1.094.4l2.111,3.283,2.111-3.283a.979.979,0,0,1,1.8.534v8.469a.977.977,0,1,1-1.954,0V14.714l-1.134,1.772a1.026,1.026,0,0,1-1.642,0l-1.134-1.772v5.147a.977.977,0,1,1-1.954,0Z" transform="translate(0 -0.03)" fill="#686cee"/>
</svg>
