<svg xmlns="http://www.w3.org/2000/svg" width="20.357" height="29.208" viewBox="0 0 20.357 29.208"><g transform="translate(-1074 -174)"><g transform="translate(1024 174)"><path d="M60.179,0A10.19,10.19,0,0,0,50,10.179V24.93a4.275,4.275,0,0,0,7.228,3.093,4.266,4.266,0,0,0,5.9,0,4.275,4.275,0,0,0,7.228-3.093V10.179A10.19,10.19,0,0,0,60.179,0ZM58.167,11.118a1.327,1.327,0,1,1,.389-.939A1.335,1.335,0,0,1,58.167,11.118Zm5.9,0a1.329,1.329,0,1,1,.389-.939A1.337,1.337,0,0,1,64.068,11.118Z" fill="#faaa1e"/></g><circle cx="2" cy="2" r="2" transform="translate(1079 182)" fill="#fff"/><circle cx="2" cy="2" r="2" transform="translate(1085 182)" fill="#fff"/></g></svg>